<?xml version="1.0" encoding="UTF-8" standalone="no"?>
<!DOCTYPE svg PUBLIC "-//W3C//DTD SVG 1.1//EN" "http://www.w3.org/Graphics/SVG/1.1/DTD/svg11.dtd">
<svg width="485px" height="120px" version="1.1" xmlns="http://www.w3.org/2000/svg" xmlns:xlink="http://www.w3.org/1999/xlink" xml:space="preserve" xmlns:serif="http://www.serif.com/" style="fill-rule:evenodd;clip-rule:evenodd;stroke-linejoin:round;stroke-miterlimit:2;">
    <rect id="Artboard-Icon--Name-und-Slogan" serif:id="Artboard Icon, Name und Slogan" x="0" y="0" width="485" height="119.963" style="fill:none;"/>
    <path id="Icon" d="M64.968,54.99L84.997,74.984L50,109.982L15.038,74.949L42.429,47.556L57.392,62.517L64.968,54.99ZM7.545,67.442L0,59.881L50,9.982L100,59.982L92.492,67.49L49.995,24.992L7.545,67.442Z" style="fill:#e33b26;"/>
    <path d="M122.603,59.472C124.094,60.75 125.734,61.793 127.523,62.602C129.312,63.412 131.08,63.816 132.826,63.816C134.785,63.816 136.244,63.454 137.202,62.73C138.161,62.006 138.64,61.026 138.64,59.791C138.64,59.152 138.502,58.599 138.225,58.13C137.948,57.661 137.543,57.246 137.011,56.884C136.478,56.522 135.839,56.181 135.094,55.862C134.349,55.542 127.267,52.508 127.267,52.508C126.16,52.082 125.106,51.528 124.105,50.846C123.104,50.165 122.209,49.366 121.421,48.45C120.633,47.535 120.005,46.47 119.536,45.256C119.068,44.042 118.834,42.668 118.834,41.135C118.834,39.431 119.206,37.823 119.952,36.311C120.697,34.799 121.719,33.478 123.018,32.35C124.318,31.221 125.872,30.337 127.683,29.698C129.493,29.059 131.484,28.74 133.656,28.74C136.084,28.74 138.48,29.208 140.844,30.145C143.208,31.082 145.285,32.445 147.074,34.234L142.346,40.176C140.983,39.111 139.609,38.292 138.225,37.716C136.84,37.141 135.318,36.854 133.656,36.854C132.038,36.854 130.749,37.184 129.791,37.844C128.833,38.504 128.353,39.431 128.353,40.624C128.353,41.263 128.513,41.806 128.833,42.253C129.152,42.7 129.599,43.105 130.174,43.467C130.749,43.829 131.431,44.17 132.219,44.489C133.007,44.809 133.848,45.16 134.743,45.543L140.046,47.716C142.601,48.738 144.614,50.143 146.083,51.932C147.553,53.721 148.288,56.085 148.288,59.024C148.288,60.771 147.936,62.421 147.234,63.976C146.531,65.531 145.508,66.894 144.167,68.065C142.825,69.237 141.185,70.174 139.247,70.876C137.309,71.579 135.105,71.931 132.634,71.931C129.908,71.931 127.193,71.43 124.488,70.429C121.783,69.428 119.345,67.927 117.172,65.925L122.603,59.472Z" style="fill:#132843;fill-rule:nonzero;"/>
    <path d="M155.252,75.764C155.55,75.849 155.891,75.935 156.274,76.02C156.658,76.105 157.02,76.148 157.36,76.148C158.936,76.148 160.15,75.764 161.002,74.998C161.854,74.231 162.493,73.23 162.919,71.995L163.366,70.333L151.163,39.474L160.619,39.474L165.155,53.083C165.624,54.531 166.05,56 166.433,57.491C166.816,58.982 167.221,60.515 167.647,62.091L167.903,62.091C168.243,60.6 168.595,59.099 168.957,57.587C169.319,56.075 169.692,54.573 170.075,53.083L173.908,39.474L182.917,39.474L171.928,71.483C171.161,73.485 170.362,75.242 169.532,76.755C168.701,78.267 167.743,79.523 166.657,80.524C165.571,81.525 164.335,82.281 162.951,82.792C161.567,83.303 159.937,83.559 158.063,83.559C157.084,83.559 156.253,83.506 155.571,83.399C154.89,83.293 154.23,83.133 153.591,82.92L155.252,75.764Z" style="fill:#132843;fill-rule:nonzero;"/>
    <path d="M189.243,61.644C190.691,62.752 192.075,63.582 193.396,64.136C194.716,64.69 196.058,64.966 197.421,64.966C198.826,64.966 199.849,64.732 200.488,64.264C201.126,63.795 201.446,63.135 201.446,62.283C201.446,61.772 201.265,61.314 200.903,60.909C200.541,60.505 200.051,60.132 199.433,59.791C198.816,59.45 198.124,59.142 197.357,58.865C196.59,58.588 195.802,58.279 194.993,57.938C194.013,57.555 193.034,57.108 192.054,56.597C191.074,56.085 190.18,55.457 189.37,54.712C188.561,53.966 187.901,53.093 187.39,52.092C186.879,51.091 186.623,49.931 186.623,48.61C186.623,47.162 186.911,45.82 187.486,44.585C188.061,43.35 188.881,42.306 189.945,41.454C191.01,40.602 192.288,39.931 193.779,39.442C195.27,38.952 196.931,38.707 198.762,38.707C201.19,38.707 203.32,39.122 205.152,39.953C206.983,40.783 208.581,41.71 209.944,42.732L205.727,48.355C204.577,47.503 203.448,46.842 202.34,46.374C201.233,45.905 200.126,45.671 199.018,45.671C196.633,45.671 195.44,46.502 195.44,48.163C195.44,48.674 195.61,49.111 195.951,49.473C196.292,49.835 196.75,50.165 197.325,50.463C197.9,50.761 198.56,51.049 199.306,51.326C200.051,51.602 200.828,51.89 201.638,52.188C202.66,52.571 203.672,53.008 204.673,53.498C205.673,53.988 206.589,54.595 207.42,55.319C208.25,56.043 208.921,56.927 209.432,57.97C209.944,59.014 210.199,60.26 210.199,61.708C210.199,63.156 209.922,64.498 209.369,65.733C208.815,66.968 207.984,68.044 206.877,68.96C205.769,69.875 204.406,70.6 202.788,71.132C201.169,71.664 199.295,71.931 197.165,71.931C195.078,71.931 192.938,71.526 190.744,70.717C188.55,69.907 186.644,68.843 185.026,67.522L189.243,61.644Z" style="fill:#132843;fill-rule:nonzero;"/>
    <path d="M217.419,46.821L213.074,46.821L213.074,39.857L217.93,39.474L219.016,31.04L226.811,31.04L226.811,39.474L234.414,39.474L234.414,46.821L226.811,46.821L226.811,59.536C226.811,61.325 227.184,62.613 227.929,63.401C228.675,64.189 229.665,64.583 230.9,64.583C231.411,64.583 231.933,64.519 232.466,64.391C232.998,64.264 233.477,64.115 233.903,63.944L235.373,70.781C234.521,71.036 233.52,71.292 232.37,71.547C231.22,71.803 229.878,71.931 228.345,71.931C226.385,71.931 224.713,71.633 223.329,71.036C221.945,70.44 220.816,69.609 219.943,68.544C219.07,67.48 218.431,66.191 218.026,64.679C217.621,63.167 217.419,61.495 217.419,59.663L217.419,46.821Z" style="fill:#132843;fill-rule:nonzero;"/>
    <path d="M238.12,55.319C238.12,52.763 238.546,50.452 239.398,48.386C240.25,46.321 241.368,44.574 242.752,43.147C244.136,41.72 245.723,40.624 247.512,39.857C249.301,39.09 251.154,38.707 253.071,38.707C255.328,38.707 257.298,39.09 258.981,39.857C260.663,40.624 262.069,41.688 263.198,43.051C264.326,44.415 265.168,46.022 265.721,47.875C266.275,49.728 266.552,51.741 266.552,53.913C266.552,54.765 266.509,55.542 266.424,56.245C266.339,56.948 266.254,57.491 266.169,57.874L247.193,57.874C247.619,60.302 248.566,62.059 250.036,63.146C251.505,64.232 253.305,64.775 255.435,64.775C257.692,64.775 259.971,64.072 262.271,62.666L265.402,68.353C263.783,69.46 261.984,70.333 260.003,70.972C258.022,71.611 256.074,71.931 254.157,71.931C251.899,71.931 249.791,71.558 247.832,70.813C245.872,70.067 244.168,68.981 242.72,67.554C241.272,66.127 240.143,64.391 239.334,62.347C238.525,60.302 238.12,57.96 238.12,55.319ZM258.565,52.06C258.565,50.229 258.161,48.738 257.352,47.588C256.542,46.438 255.179,45.863 253.262,45.863C251.772,45.863 250.462,46.363 249.333,47.364C248.204,48.365 247.47,49.931 247.129,52.06L258.565,52.06Z" style="fill:#132843;fill-rule:nonzero;"/>
    <path d="M273.069,39.474L280.736,39.474L281.375,43.563L281.63,43.563C282.951,42.242 284.357,41.103 285.847,40.144C287.338,39.186 289.127,38.707 291.214,38.707C293.472,38.707 295.293,39.165 296.677,40.08C298.061,40.996 299.158,42.306 299.968,44.01C301.373,42.562 302.853,41.316 304.408,40.272C305.963,39.229 307.805,38.707 309.935,38.707C313.342,38.707 315.845,39.846 317.442,42.125C319.039,44.404 319.838,47.524 319.838,51.485L319.838,71.164L310.446,71.164L310.446,52.699C310.446,50.399 310.137,48.823 309.519,47.971C308.902,47.119 307.911,46.693 306.548,46.693C304.972,46.693 303.162,47.716 301.118,49.76L301.118,71.164L291.725,71.164L291.725,52.699C291.725,50.399 291.417,48.823 290.799,47.971C290.181,47.119 289.191,46.693 287.828,46.693C286.209,46.693 284.42,47.716 282.461,49.76L282.461,71.164L273.069,71.164L273.069,39.474Z" style="fill:#132843;fill-rule:nonzero;"/>
    <path d="M329.23,61.644C330.678,62.752 332.063,63.582 333.383,64.136C334.703,64.69 336.045,64.966 337.408,64.966C338.814,64.966 339.836,64.732 340.475,64.264C341.114,63.795 341.433,63.135 341.433,62.283C341.433,61.772 341.252,61.314 340.89,60.909C340.528,60.505 340.038,60.132 339.421,59.791C338.803,59.45 338.111,59.142 337.344,58.865C336.578,58.588 335.79,58.279 334.98,57.938C334.001,57.555 333.021,57.108 332.041,56.597C331.062,56.085 330.167,55.457 329.358,54.712C328.549,53.966 327.888,53.093 327.377,52.092C326.866,51.091 326.61,49.931 326.61,48.61C326.61,47.162 326.898,45.82 327.473,44.585C328.048,43.35 328.868,42.306 329.933,41.454C330.998,40.602 332.276,39.931 333.766,39.442C335.257,38.952 336.918,38.707 338.75,38.707C341.178,38.707 343.308,39.122 345.139,39.953C346.971,40.783 348.568,41.71 349.931,42.732L345.714,48.355C344.564,47.503 343.435,46.842 342.328,46.374C341.22,45.905 340.113,45.671 339.006,45.671C336.62,45.671 335.428,46.502 335.428,48.163C335.428,48.674 335.598,49.111 335.939,49.473C336.279,49.835 336.737,50.165 337.312,50.463C337.887,50.761 338.548,51.049 339.293,51.326C340.038,51.602 340.816,51.89 341.625,52.188C342.647,52.571 343.659,53.008 344.66,53.498C345.661,53.988 346.577,54.595 347.407,55.319C348.238,56.043 348.909,56.927 349.42,57.97C349.931,59.014 350.187,60.26 350.187,61.708C350.187,63.156 349.91,64.498 349.356,65.733C348.802,66.968 347.972,68.044 346.864,68.96C345.757,69.875 344.394,70.6 342.775,71.132C341.157,71.664 339.282,71.931 337.153,71.931C335.066,71.931 332.925,71.526 330.732,70.717C328.538,69.907 326.632,68.843 325.013,67.522L329.23,61.644Z" style="fill:#132843;fill-rule:nonzero;"/>
    <path d="M354.276,55.319C354.276,52.678 354.723,50.325 355.617,48.259C356.512,46.193 357.715,44.457 359.227,43.051C360.74,41.646 362.497,40.57 364.498,39.825C366.5,39.08 368.588,38.707 370.76,38.707C372.719,38.707 374.487,39.037 376.063,39.697C377.639,40.357 378.959,41.241 380.024,42.349L375.743,48.163C374.253,46.928 372.783,46.31 371.335,46.31C369.035,46.31 367.225,47.119 365.904,48.738C364.584,50.356 363.923,52.55 363.923,55.319C363.923,58.087 364.594,60.281 365.936,61.9C367.278,63.518 368.971,64.328 371.015,64.328C372.166,64.328 373.209,64.093 374.146,63.625C375.083,63.156 375.935,62.624 376.702,62.027L380.472,67.969C378.938,69.332 377.234,70.333 375.36,70.972C373.486,71.611 371.676,71.931 369.929,71.931C367.714,71.931 365.659,71.558 363.764,70.813C361.868,70.067 360.218,68.992 358.812,67.586C357.406,66.18 356.299,64.445 355.49,62.379C354.68,60.313 354.276,57.96 354.276,55.319Z" style="fill:#132843;fill-rule:nonzero;"/>
    <path d="M384.177,62.347C384.177,59.024 385.583,56.426 388.394,54.552C391.205,52.678 395.742,51.421 402.003,50.782C401.918,49.377 401.492,48.259 400.725,47.428C399.959,46.597 398.723,46.182 397.02,46.182C395.657,46.182 394.293,46.438 392.93,46.949C391.567,47.46 390.119,48.163 388.586,49.057L385.263,42.86C387.308,41.625 389.448,40.624 391.685,39.857C393.921,39.09 396.295,38.707 398.809,38.707C402.898,38.707 406.018,39.868 408.169,42.189C410.32,44.51 411.395,48.12 411.395,53.019L411.395,71.164L403.728,71.164L403.025,67.905L402.834,67.905C401.471,69.098 400.033,70.067 398.521,70.813C397.009,71.558 395.358,71.931 393.569,71.931C392.121,71.931 390.822,71.686 389.672,71.196C388.522,70.706 387.542,70.025 386.733,69.151C385.924,68.278 385.295,67.267 384.848,66.117C384.401,64.966 384.177,63.71 384.177,62.347ZM393.122,61.644C393.122,62.666 393.452,63.422 394.112,63.912C394.773,64.402 395.657,64.647 396.764,64.647C397.871,64.647 398.809,64.413 399.575,63.944C400.342,63.476 401.151,62.815 402.003,61.964L402.003,56.405C398.638,56.873 396.317,57.555 395.039,58.449C393.761,59.344 393.122,60.409 393.122,61.644Z" style="fill:#132843;fill-rule:nonzero;"/>
    <path d="M428.838,73.656L428.838,82.92L419.446,82.92L419.446,39.474L427.113,39.474L427.752,42.604L428.007,42.604C429.242,41.497 430.637,40.57 432.192,39.825C433.747,39.08 435.355,38.707 437.016,38.707C438.933,38.707 440.658,39.09 442.191,39.857C443.725,40.624 445.024,41.71 446.089,43.115C447.154,44.521 447.973,46.214 448.548,48.195C449.124,50.175 449.411,52.38 449.411,54.808C449.411,57.534 449.038,59.951 448.293,62.059C447.548,64.168 446.547,65.957 445.29,67.426C444.033,68.896 442.607,70.014 441.009,70.781C439.412,71.547 437.761,71.931 436.058,71.931C434.695,71.931 433.374,71.643 432.096,71.068C430.818,70.493 429.626,69.673 428.518,68.608L428.838,73.656ZM428.838,62.219C429.69,62.986 430.542,63.518 431.393,63.816C432.245,64.115 433.076,64.264 433.885,64.264C435.504,64.264 436.888,63.529 438.038,62.059C439.188,60.59 439.763,58.215 439.763,54.935C439.763,49.228 437.932,46.374 434.269,46.374C432.437,46.374 430.627,47.332 428.838,49.249L428.838,62.219Z" style="fill:#132843;fill-rule:nonzero;"/>
    <path d="M454.203,55.319C454.203,52.763 454.629,50.452 455.481,48.386C456.333,46.321 457.451,44.574 458.835,43.147C460.219,41.72 461.806,40.624 463.595,39.857C465.384,39.09 467.237,38.707 469.154,38.707C471.411,38.707 473.381,39.09 475.064,39.857C476.746,40.624 478.152,41.688 479.281,43.051C480.409,44.415 481.251,46.022 481.804,47.875C482.358,49.728 482.635,51.741 482.635,53.913C482.635,54.765 482.592,55.542 482.507,56.245C482.422,56.948 482.337,57.491 482.252,57.874L463.276,57.874C463.702,60.302 464.649,62.059 466.119,63.146C467.588,64.232 469.388,64.775 471.518,64.775C473.775,64.775 476.054,64.072 478.354,62.666L481.485,68.353C479.866,69.46 478.067,70.333 476.086,70.972C474.105,71.611 472.157,71.931 470.24,71.931C467.982,71.931 465.874,71.558 463.915,70.813C461.955,70.067 460.251,68.981 458.803,67.554C457.355,66.127 456.226,64.391 455.417,62.347C454.608,60.302 454.203,57.96 454.203,55.319ZM474.648,52.06C474.648,50.229 474.244,48.738 473.434,47.588C472.625,46.438 471.262,45.863 469.345,45.863C467.855,45.863 466.545,46.363 465.416,47.364C464.287,48.365 463.552,49.931 463.212,52.06L474.648,52.06Z" style="fill:#132843;fill-rule:nonzero;"/>
    <path d="M120.56,110.471C119.62,110.471 118.748,110.294 117.944,109.94C117.14,109.585 116.445,109.102 115.859,108.488L116.881,107.303C117.358,107.807 117.92,108.212 118.567,108.519C119.214,108.826 119.886,108.979 120.581,108.979C121.466,108.979 122.155,108.778 122.645,108.376C123.136,107.974 123.381,107.446 123.381,106.792C123.381,106.451 123.323,106.161 123.207,105.923C123.092,105.684 122.935,105.48 122.737,105.31C122.54,105.139 122.305,104.986 122.032,104.85C121.759,104.713 121.466,104.57 121.153,104.42L119.231,103.582C118.918,103.446 118.598,103.282 118.271,103.092C117.944,102.901 117.651,102.669 117.392,102.397C117.133,102.124 116.922,101.8 116.758,101.426C116.594,101.051 116.513,100.618 116.513,100.128C116.513,99.623 116.618,99.153 116.83,98.717C117.041,98.281 117.334,97.903 117.709,97.583C118.083,97.262 118.526,97.014 119.037,96.836C119.548,96.659 120.11,96.571 120.724,96.571C121.528,96.571 122.271,96.724 122.952,97.031C123.633,97.337 124.212,97.736 124.689,98.226L123.77,99.33C123.361,98.935 122.908,98.625 122.41,98.4C121.913,98.175 121.351,98.063 120.724,98.063C119.974,98.063 119.371,98.237 118.915,98.584C118.458,98.932 118.23,99.412 118.23,100.025C118.23,100.352 118.295,100.628 118.424,100.853C118.553,101.078 118.727,101.276 118.945,101.446C119.163,101.616 119.402,101.766 119.661,101.896C119.92,102.025 120.185,102.144 120.458,102.254L122.359,103.071C122.741,103.235 123.102,103.422 123.443,103.633C123.783,103.845 124.076,104.09 124.322,104.369C124.567,104.649 124.761,104.976 124.904,105.35C125.047,105.725 125.119,106.158 125.119,106.649C125.119,107.18 125.013,107.677 124.802,108.141C124.591,108.604 124.287,109.01 123.892,109.357C123.497,109.705 123.02,109.977 122.461,110.175C121.903,110.372 121.269,110.471 120.56,110.471Z" style="fill:#132843;fill-rule:nonzero;"/>
    <path d="M129.882,110.471C129.05,110.471 128.359,110.226 127.807,109.735C127.255,109.245 126.979,108.55 126.979,107.65C126.979,106.56 127.463,105.725 128.43,105.146C129.398,104.567 130.945,104.161 133.071,103.93C133.071,103.616 133.04,103.31 132.979,103.01C132.917,102.71 132.812,102.444 132.662,102.213C132.512,101.981 132.304,101.794 132.038,101.65C131.773,101.507 131.435,101.436 131.026,101.436C130.454,101.436 129.916,101.545 129.412,101.763C128.907,101.981 128.458,102.226 128.062,102.499L127.408,101.334C127.872,101.034 128.437,100.744 129.105,100.465C129.773,100.185 130.509,100.046 131.313,100.046C132.526,100.046 133.405,100.417 133.95,101.16C134.495,101.903 134.767,102.894 134.767,104.134L134.767,110.226L133.377,110.226L133.234,109.04L133.173,109.04C132.696,109.435 132.185,109.773 131.64,110.052C131.095,110.331 130.509,110.471 129.882,110.471ZM130.372,109.122C130.849,109.122 131.299,109.01 131.722,108.785C132.144,108.56 132.594,108.229 133.071,107.793L133.071,105.034C132.239,105.143 131.541,105.272 130.975,105.422C130.41,105.572 129.953,105.749 129.606,105.954C129.258,106.158 129.006,106.393 128.849,106.659C128.693,106.925 128.614,107.214 128.614,107.528C128.614,108.1 128.785,108.509 129.125,108.754C129.466,108.999 129.882,109.122 130.372,109.122Z" style="fill:#132843;fill-rule:nonzero;"/>
    <path d="M138.181,110.226L138.181,101.661L136.832,101.661L136.832,100.393L138.181,100.291L138.181,98.717C138.181,97.695 138.416,96.891 138.886,96.305C139.357,95.719 140.089,95.426 141.084,95.426C141.397,95.426 141.694,95.457 141.973,95.518C142.253,95.579 142.508,95.658 142.74,95.753L142.372,97.041C142.004,96.877 141.629,96.796 141.247,96.796C140.321,96.796 139.857,97.436 139.857,98.717L139.857,100.291L141.963,100.291L141.963,101.661L139.857,101.661L139.857,110.226L138.181,110.226Z" style="fill:#132843;fill-rule:nonzero;"/>
    <path d="M147.687,110.471C147.019,110.471 146.395,110.352 145.816,110.113C145.237,109.875 144.733,109.534 144.304,109.091C143.874,108.648 143.537,108.107 143.292,107.466C143.046,106.826 142.924,106.097 142.924,105.279C142.924,104.461 143.05,103.729 143.302,103.081C143.554,102.434 143.888,101.886 144.304,101.436C144.719,100.986 145.193,100.642 145.724,100.404C146.256,100.165 146.808,100.046 147.38,100.046C148.007,100.046 148.569,100.155 149.066,100.373C149.564,100.591 149.98,100.904 150.313,101.313C150.647,101.722 150.903,102.213 151.08,102.785C151.257,103.357 151.346,103.998 151.346,104.707C151.346,104.884 151.342,105.057 151.336,105.228C151.329,105.398 151.312,105.545 151.284,105.667L144.579,105.667C144.648,106.73 144.978,107.572 145.571,108.192C146.164,108.812 146.937,109.122 147.891,109.122C148.368,109.122 148.808,109.05 149.21,108.907C149.612,108.764 149.997,108.577 150.365,108.345L150.957,109.449C150.521,109.722 150.037,109.96 149.506,110.165C148.974,110.369 148.368,110.471 147.687,110.471ZM144.559,104.461L149.874,104.461C149.874,103.453 149.659,102.686 149.23,102.162C148.801,101.637 148.198,101.375 147.421,101.375C147.067,101.375 146.729,101.443 146.409,101.579C146.089,101.715 145.799,101.916 145.54,102.182C145.281,102.448 145.067,102.771 144.896,103.153C144.726,103.535 144.614,103.971 144.559,104.461Z" style="fill:#132843;fill-rule:nonzero;"/>
    <path d="M155.577,110.471C154.937,110.471 154.48,110.28 154.208,109.899C153.935,109.517 153.799,108.958 153.799,108.223L153.799,95.671L155.475,95.671L155.475,108.345C155.475,108.618 155.523,108.809 155.618,108.918C155.714,109.027 155.823,109.081 155.945,109.081L156.099,109.081C156.146,109.081 156.218,109.067 156.313,109.04L156.538,110.308C156.429,110.362 156.3,110.403 156.15,110.43C156,110.458 155.809,110.471 155.577,110.471Z" style="fill:#132843;fill-rule:nonzero;"/>
    <path d="M159.175,114.498C158.943,114.498 158.732,114.481 158.541,114.447C158.351,114.413 158.173,114.362 158.01,114.294L158.337,112.965C158.446,112.992 158.569,113.023 158.705,113.057C158.841,113.091 158.971,113.108 159.093,113.108C159.666,113.108 160.132,112.907 160.494,112.505C160.855,112.103 161.137,111.595 161.342,110.982L161.567,110.246L157.581,100.291L159.318,100.291L161.342,105.79C161.492,106.226 161.652,106.686 161.822,107.17C161.993,107.654 162.153,108.127 162.303,108.591L162.384,108.591C162.534,108.141 162.677,107.671 162.814,107.18C162.95,106.689 163.086,106.226 163.223,105.79L165.001,100.291L166.636,100.291L162.895,111.044C162.718,111.534 162.521,111.991 162.303,112.413C162.085,112.836 161.826,113.2 161.526,113.507C161.226,113.813 160.885,114.055 160.504,114.232C160.122,114.41 159.679,114.498 159.175,114.498Z" style="fill:#132843;fill-rule:nonzero;"/>
    <path d="M172.646,110.226L172.646,100.291L174.036,100.291L174.179,101.722L174.241,101.722C174.718,101.245 175.219,100.846 175.743,100.526C176.268,100.206 176.878,100.046 177.573,100.046C178.622,100.046 179.389,100.373 179.872,101.027C180.356,101.681 180.598,102.649 180.598,103.93L180.598,110.226L178.922,110.226L178.922,104.155C178.922,103.214 178.772,102.536 178.472,102.121C178.172,101.705 177.695,101.497 177.041,101.497C176.523,101.497 176.067,101.627 175.672,101.886C175.276,102.144 174.827,102.526 174.322,103.03L174.322,110.226L172.646,110.226Z" style="fill:#132843;fill-rule:nonzero;"/>
    <path d="M186.117,110.471C185.286,110.471 184.595,110.226 184.043,109.735C183.491,109.245 183.215,108.55 183.215,107.65C183.215,106.56 183.699,105.725 184.666,105.146C185.634,104.567 187.18,104.161 189.306,103.93C189.306,103.616 189.276,103.31 189.214,103.01C189.153,102.71 189.047,102.444 188.898,102.213C188.748,101.981 188.54,101.794 188.274,101.65C188.008,101.507 187.671,101.436 187.262,101.436C186.69,101.436 186.152,101.545 185.647,101.763C185.143,101.981 184.693,102.226 184.298,102.499L183.644,101.334C184.107,101.034 184.673,100.744 185.341,100.465C186.008,100.185 186.744,100.046 187.548,100.046C188.761,100.046 189.64,100.417 190.185,101.16C190.731,101.903 191.003,102.894 191.003,104.134L191.003,110.226L189.613,110.226L189.47,109.04L189.409,109.04C188.932,109.435 188.421,109.773 187.875,110.052C187.33,110.331 186.744,110.471 186.117,110.471ZM186.608,109.122C187.085,109.122 187.535,109.01 187.957,108.785C188.38,108.56 188.829,108.229 189.306,107.793L189.306,105.034C188.475,105.143 187.777,105.272 187.211,105.422C186.646,105.572 186.189,105.749 185.842,105.954C185.494,106.158 185.242,106.393 185.085,106.659C184.928,106.925 184.85,107.214 184.85,107.528C184.85,108.1 185.02,108.509 185.361,108.754C185.702,108.999 186.117,109.122 186.608,109.122Z" style="fill:#132843;fill-rule:nonzero;"/>
    <path d="M196.277,110.226L192.7,100.291L194.437,100.291L196.318,105.933C196.468,106.424 196.621,106.914 196.778,107.405C196.935,107.895 197.088,108.379 197.238,108.856L197.32,108.856C197.47,108.379 197.619,107.895 197.769,107.405C197.919,106.914 198.069,106.424 198.219,105.933L200.1,100.291L201.756,100.291L198.24,110.226L196.277,110.226Z" style="fill:#132843;fill-rule:nonzero;"/>
    <path d="M203.677,110.226L203.677,100.291L205.353,100.291L205.353,110.226L203.677,110.226ZM204.536,98.247C204.209,98.247 203.933,98.145 203.708,97.94C203.483,97.736 203.37,97.477 203.37,97.163C203.37,96.836 203.483,96.574 203.708,96.376C203.933,96.179 204.209,96.08 204.536,96.08C204.863,96.08 205.139,96.179 205.364,96.376C205.588,96.574 205.701,96.836 205.701,97.163C205.701,97.477 205.588,97.736 205.364,97.94C205.139,98.145 204.863,98.247 204.536,98.247Z" style="fill:#132843;fill-rule:nonzero;"/>
    <path d="M212.058,114.805C211.445,114.805 210.886,114.747 210.382,114.631C209.878,114.515 209.445,114.342 209.084,114.11C208.723,113.878 208.443,113.599 208.246,113.272C208.048,112.945 207.949,112.563 207.949,112.127C207.949,111.705 208.079,111.302 208.338,110.921C208.597,110.539 208.951,110.192 209.401,109.878L209.401,109.797C209.156,109.647 208.948,109.439 208.777,109.173C208.607,108.907 208.522,108.577 208.522,108.182C208.522,107.759 208.638,107.391 208.869,107.078C209.101,106.764 209.346,106.519 209.605,106.342L209.605,106.26C209.278,105.988 208.982,105.623 208.716,105.166C208.45,104.71 208.317,104.182 208.317,103.582C208.317,103.037 208.416,102.547 208.614,102.11C208.811,101.674 209.081,101.303 209.421,100.996C209.762,100.69 210.161,100.455 210.617,100.291C211.074,100.128 211.554,100.046 212.058,100.046C212.331,100.046 212.586,100.07 212.825,100.117C213.063,100.165 213.278,100.223 213.469,100.291L216.923,100.291L216.923,101.579L214.879,101.579C215.111,101.811 215.305,102.104 215.462,102.458C215.619,102.812 215.697,103.201 215.697,103.623C215.697,104.155 215.602,104.635 215.411,105.064C215.22,105.494 214.961,105.855 214.634,106.148C214.307,106.441 213.922,106.669 213.479,106.833C213.036,106.996 212.563,107.078 212.058,107.078C211.813,107.078 211.561,107.047 211.302,106.986C211.043,106.925 210.798,106.839 210.566,106.73C210.389,106.88 210.239,107.047 210.116,107.231C209.994,107.415 209.932,107.643 209.932,107.916C209.932,108.229 210.055,108.488 210.3,108.693C210.546,108.897 211.009,108.999 211.69,108.999L213.612,108.999C214.77,108.999 215.639,109.187 216.218,109.562C216.797,109.936 217.087,110.539 217.087,111.371C217.087,111.834 216.971,112.273 216.74,112.689C216.508,113.105 216.174,113.469 215.738,113.783C215.302,114.096 214.774,114.345 214.154,114.529C213.534,114.713 212.835,114.805 212.058,114.805ZM212.058,105.954C212.344,105.954 212.614,105.899 212.866,105.79C213.118,105.681 213.343,105.524 213.54,105.32C213.738,105.115 213.891,104.867 214,104.574C214.109,104.281 214.164,103.95 214.164,103.582C214.164,102.846 213.959,102.277 213.551,101.875C213.142,101.473 212.644,101.272 212.058,101.272C211.472,101.272 210.975,101.473 210.566,101.875C210.157,102.277 209.953,102.846 209.953,103.582C209.953,103.95 210.007,104.281 210.116,104.574C210.225,104.867 210.379,105.115 210.576,105.32C210.774,105.524 210.999,105.681 211.251,105.79C211.503,105.899 211.772,105.954 212.058,105.954ZM212.304,113.64C212.781,113.64 213.213,113.582 213.602,113.466C213.99,113.35 214.321,113.2 214.593,113.016C214.866,112.832 215.077,112.618 215.227,112.372C215.377,112.127 215.452,111.875 215.452,111.616C215.452,111.153 215.281,110.832 214.941,110.655C214.6,110.478 214.102,110.389 213.448,110.389L211.731,110.389C211.54,110.389 211.333,110.379 211.108,110.359C210.883,110.338 210.661,110.294 210.443,110.226C210.089,110.485 209.83,110.757 209.667,111.044C209.503,111.33 209.421,111.616 209.421,111.902C209.421,112.434 209.677,112.856 210.188,113.17C210.699,113.483 211.404,113.64 212.304,113.64Z" style="fill:#132843;fill-rule:nonzero;"/>
    <path d="M220.971,110.471C220.14,110.471 219.448,110.226 218.896,109.735C218.344,109.245 218.068,108.55 218.068,107.65C218.068,106.56 218.552,105.725 219.52,105.146C220.487,104.567 222.034,104.161 224.16,103.93C224.16,103.616 224.129,103.31 224.068,103.01C224.007,102.71 223.901,102.444 223.751,102.213C223.601,101.981 223.393,101.794 223.128,101.65C222.862,101.507 222.525,101.436 222.116,101.436C221.543,101.436 221.005,101.545 220.501,101.763C219.997,101.981 219.547,102.226 219.152,102.499L218.498,101.334C218.961,101.034 219.526,100.744 220.194,100.465C220.862,100.185 221.598,100.046 222.402,100.046C223.615,100.046 224.494,100.417 225.039,101.16C225.584,101.903 225.857,102.894 225.857,104.134L225.857,110.226L224.467,110.226L224.323,109.04L224.262,109.04C223.785,109.435 223.274,109.773 222.729,110.052C222.184,110.331 221.598,110.471 220.971,110.471ZM221.462,109.122C221.939,109.122 222.388,109.01 222.811,108.785C223.233,108.56 223.683,108.229 224.16,107.793L224.16,105.034C223.329,105.143 222.63,105.272 222.065,105.422C221.499,105.572 221.043,105.749 220.695,105.954C220.348,106.158 220.095,106.393 219.939,106.659C219.782,106.925 219.704,107.214 219.704,107.528C219.704,108.1 219.874,108.509 220.215,108.754C220.555,108.999 220.971,109.122 221.462,109.122Z" style="fill:#132843;fill-rule:nonzero;"/>
    <path d="M231.826,110.471C231.294,110.471 230.848,110.389 230.487,110.226C230.126,110.062 229.833,109.837 229.608,109.551C229.383,109.265 229.223,108.918 229.127,108.509C229.032,108.1 228.984,107.65 228.984,107.16L228.984,101.661L227.512,101.661L227.512,100.393L229.066,100.291L229.27,97.511L230.681,97.511L230.681,100.291L233.359,100.291L233.359,101.661L230.681,101.661L230.681,107.18C230.681,107.793 230.793,108.267 231.018,108.601C231.243,108.935 231.642,109.102 232.214,109.102C232.391,109.102 232.582,109.074 232.786,109.02C232.991,108.965 233.175,108.904 233.338,108.836L233.665,110.103C233.393,110.199 233.096,110.284 232.776,110.359C232.456,110.434 232.139,110.471 231.826,110.471Z" style="fill:#132843;fill-rule:nonzero;"/>
    <path d="M235.607,110.226L235.607,100.291L237.284,100.291L237.284,110.226L235.607,110.226ZM236.466,98.247C236.139,98.247 235.863,98.145 235.638,97.94C235.413,97.736 235.301,97.477 235.301,97.163C235.301,96.836 235.413,96.574 235.638,96.376C235.863,96.179 236.139,96.08 236.466,96.08C236.793,96.08 237.069,96.179 237.294,96.376C237.519,96.574 237.631,96.836 237.631,97.163C237.631,97.477 237.519,97.736 237.294,97.94C237.069,98.145 236.793,98.247 236.466,98.247Z" style="fill:#132843;fill-rule:nonzero;"/>
    <path d="M240.636,110.226L240.636,100.291L242.026,100.291L242.169,101.722L242.231,101.722C242.708,101.245 243.208,100.846 243.733,100.526C244.258,100.206 244.868,100.046 245.563,100.046C246.612,100.046 247.379,100.373 247.862,101.027C248.346,101.681 248.588,102.649 248.588,103.93L248.588,110.226L246.912,110.226L246.912,104.155C246.912,103.214 246.762,102.536 246.462,102.121C246.162,101.705 245.685,101.497 245.031,101.497C244.513,101.497 244.057,101.627 243.662,101.886C243.266,102.144 242.817,102.526 242.312,103.03L242.312,110.226L240.636,110.226Z" style="fill:#132843;fill-rule:nonzero;"/>
    <path d="M255.17,114.805C254.557,114.805 253.998,114.747 253.494,114.631C252.99,114.515 252.557,114.342 252.196,114.11C251.835,113.878 251.556,113.599 251.358,113.272C251.16,112.945 251.062,112.563 251.062,112.127C251.062,111.705 251.191,111.302 251.45,110.921C251.709,110.539 252.063,110.192 252.513,109.878L252.513,109.797C252.268,109.647 252.06,109.439 251.889,109.173C251.719,108.907 251.634,108.577 251.634,108.182C251.634,107.759 251.75,107.391 251.981,107.078C252.213,106.764 252.458,106.519 252.717,106.342L252.717,106.26C252.39,105.988 252.094,105.623 251.828,105.166C251.562,104.71 251.429,104.182 251.429,103.582C251.429,103.037 251.528,102.547 251.726,102.11C251.923,101.674 252.193,101.303 252.533,100.996C252.874,100.69 253.273,100.455 253.729,100.291C254.186,100.128 254.666,100.046 255.17,100.046C255.443,100.046 255.698,100.07 255.937,100.117C256.175,100.165 256.39,100.223 256.581,100.291L260.036,100.291L260.036,101.579L257.991,101.579C258.223,101.811 258.417,102.104 258.574,102.458C258.731,102.812 258.809,103.201 258.809,103.623C258.809,104.155 258.714,104.635 258.523,105.064C258.332,105.494 258.073,105.855 257.746,106.148C257.419,106.441 257.034,106.669 256.591,106.833C256.148,106.996 255.675,107.078 255.17,107.078C254.925,107.078 254.673,107.047 254.414,106.986C254.155,106.925 253.91,106.839 253.678,106.73C253.501,106.88 253.351,107.047 253.228,107.231C253.106,107.415 253.044,107.643 253.044,107.916C253.044,108.229 253.167,108.488 253.412,108.693C253.658,108.897 254.121,108.999 254.802,108.999L256.724,108.999C257.882,108.999 258.751,109.187 259.33,109.562C259.909,109.936 260.199,110.539 260.199,111.371C260.199,111.834 260.083,112.273 259.852,112.689C259.62,113.105 259.286,113.469 258.85,113.783C258.414,114.096 257.886,114.345 257.266,114.529C256.646,114.713 255.947,114.805 255.17,114.805ZM255.17,105.954C255.457,105.954 255.726,105.899 255.978,105.79C256.23,105.681 256.455,105.524 256.652,105.32C256.85,105.115 257.003,104.867 257.112,104.574C257.221,104.281 257.276,103.95 257.276,103.582C257.276,102.846 257.071,102.277 256.663,101.875C256.254,101.473 255.756,101.272 255.17,101.272C254.584,101.272 254.087,101.473 253.678,101.875C253.269,102.277 253.065,102.846 253.065,103.582C253.065,103.95 253.119,104.281 253.228,104.574C253.337,104.867 253.491,105.115 253.688,105.32C253.886,105.524 254.111,105.681 254.363,105.79C254.615,105.899 254.884,105.954 255.17,105.954ZM255.416,113.64C255.893,113.64 256.325,113.582 256.714,113.466C257.102,113.35 257.433,113.2 257.705,113.016C257.978,112.832 258.189,112.618 258.339,112.372C258.489,112.127 258.564,111.875 258.564,111.616C258.564,111.153 258.393,110.832 258.053,110.655C257.712,110.478 257.215,110.389 256.56,110.389L254.843,110.389C254.652,110.389 254.445,110.379 254.22,110.359C253.995,110.338 253.773,110.294 253.555,110.226C253.201,110.485 252.942,110.757 252.779,111.044C252.615,111.33 252.533,111.616 252.533,111.902C252.533,112.434 252.789,112.856 253.3,113.17C253.811,113.483 254.516,113.64 255.416,113.64Z" style="fill:#132843;fill-rule:nonzero;"/>
    <path d="M270.236,110.471C269.568,110.471 268.945,110.352 268.366,110.113C267.786,109.875 267.282,109.534 266.853,109.091C266.424,108.648 266.086,108.107 265.841,107.466C265.596,106.826 265.473,106.097 265.473,105.279C265.473,104.461 265.599,103.729 265.851,103.081C266.103,102.434 266.437,101.886 266.853,101.436C267.269,100.986 267.742,100.642 268.274,100.404C268.805,100.165 269.357,100.046 269.929,100.046C270.556,100.046 271.118,100.155 271.616,100.373C272.113,100.591 272.529,100.904 272.863,101.313C273.197,101.722 273.452,102.213 273.629,102.785C273.807,103.357 273.895,103.998 273.895,104.707C273.895,104.884 273.892,105.057 273.885,105.228C273.878,105.398 273.861,105.545 273.834,105.667L267.129,105.667C267.197,106.73 267.527,107.572 268.12,108.192C268.713,108.812 269.487,109.122 270.44,109.122C270.917,109.122 271.357,109.05 271.759,108.907C272.161,108.764 272.546,108.577 272.914,108.345L273.507,109.449C273.071,109.722 272.587,109.96 272.055,110.165C271.524,110.369 270.917,110.471 270.236,110.471ZM267.108,104.461L272.423,104.461C272.423,103.453 272.209,102.686 271.779,102.162C271.35,101.637 270.747,101.375 269.97,101.375C269.616,101.375 269.279,101.443 268.958,101.579C268.638,101.715 268.349,101.916 268.09,102.182C267.831,102.448 267.616,102.771 267.446,103.153C267.275,103.535 267.163,103.971 267.108,104.461Z" style="fill:#132843;fill-rule:nonzero;"/>
    <path d="M276.348,110.226L276.348,100.291L277.738,100.291L277.881,101.722L277.943,101.722C278.379,101.245 278.852,100.846 279.363,100.526C279.874,100.206 280.43,100.046 281.029,100.046C281.793,100.046 282.389,100.213 282.818,100.547C283.247,100.881 283.564,101.347 283.769,101.947C284.286,101.375 284.808,100.915 285.332,100.567C285.857,100.22 286.426,100.046 287.039,100.046C288.061,100.046 288.821,100.373 289.319,101.027C289.816,101.681 290.065,102.649 290.065,103.93L290.065,110.226L288.388,110.226L288.388,104.155C288.388,103.214 288.239,102.536 287.939,102.121C287.639,101.705 287.176,101.497 286.549,101.497C285.799,101.497 284.968,102.008 284.055,103.03L284.055,110.226L282.379,110.226L282.379,104.155C282.379,103.214 282.229,102.536 281.929,102.121C281.629,101.705 281.159,101.497 280.518,101.497C279.769,101.497 278.937,102.008 278.024,103.03L278.024,110.226L276.348,110.226Z" style="fill:#132843;fill-rule:nonzero;"/>
    <path d="M297.69,110.471C297.226,110.471 296.746,110.359 296.248,110.134C295.751,109.909 295.284,109.599 294.848,109.204L294.787,109.204L294.644,110.226L293.295,110.226L293.295,95.671L294.971,95.671L294.971,99.637L294.93,101.436C295.38,101.041 295.87,100.71 296.402,100.444C296.933,100.179 297.478,100.046 298.037,100.046C298.678,100.046 299.243,100.165 299.734,100.404C300.224,100.642 300.637,100.983 300.97,101.426C301.304,101.869 301.556,102.4 301.727,103.02C301.897,103.64 301.982,104.332 301.982,105.095C301.982,105.94 301.867,106.696 301.635,107.364C301.403,108.032 301.09,108.597 300.695,109.061C300.299,109.524 299.843,109.875 299.325,110.113C298.807,110.352 298.262,110.471 297.69,110.471ZM297.403,109.061C297.812,109.061 298.19,108.969 298.538,108.785C298.885,108.601 299.185,108.342 299.437,108.008C299.689,107.674 299.887,107.262 300.03,106.771C300.173,106.281 300.245,105.729 300.245,105.115C300.245,104.57 300.197,104.073 300.102,103.623C300.006,103.173 299.853,102.788 299.642,102.468C299.431,102.148 299.158,101.899 298.824,101.722C298.49,101.545 298.092,101.456 297.628,101.456C296.824,101.456 295.938,101.906 294.971,102.805L294.971,108.018C295.407,108.4 295.84,108.669 296.269,108.826C296.698,108.982 297.076,109.061 297.403,109.061Z" style="fill:#132843;fill-rule:nonzero;"/>
    <path d="M308.626,110.471C307.958,110.471 307.335,110.352 306.756,110.113C306.176,109.875 305.672,109.534 305.243,109.091C304.814,108.648 304.476,108.107 304.231,107.466C303.986,106.826 303.863,106.097 303.863,105.279C303.863,104.461 303.989,103.729 304.241,103.081C304.493,102.434 304.827,101.886 305.243,101.436C305.659,100.986 306.132,100.642 306.664,100.404C307.195,100.165 307.747,100.046 308.319,100.046C308.946,100.046 309.508,100.155 310.006,100.373C310.503,100.591 310.919,100.904 311.253,101.313C311.587,101.722 311.842,102.213 312.019,102.785C312.197,103.357 312.285,103.998 312.285,104.707C312.285,104.884 312.282,105.057 312.275,105.228C312.268,105.398 312.251,105.545 312.224,105.667L305.519,105.667C305.587,106.73 305.917,107.572 306.51,108.192C307.103,108.812 307.876,109.122 308.83,109.122C309.307,109.122 309.747,109.05 310.149,108.907C310.551,108.764 310.936,108.577 311.304,108.345L311.897,109.449C311.461,109.722 310.977,109.96 310.445,110.165C309.914,110.369 309.307,110.471 308.626,110.471ZM305.498,104.461L310.813,104.461C310.813,103.453 310.599,102.686 310.169,102.162C309.74,101.637 309.137,101.375 308.36,101.375C308.006,101.375 307.669,101.443 307.348,101.579C307.028,101.715 306.739,101.916 306.48,102.182C306.221,102.448 306.006,102.771 305.836,103.153C305.665,103.535 305.553,103.971 305.498,104.461Z" style="fill:#132843;fill-rule:nonzero;"/>
    <path d="M318.132,110.471C316.878,110.471 315.879,110.021 315.137,109.122C314.394,108.223 314.023,106.942 314.023,105.279C314.023,104.475 314.142,103.749 314.38,103.102C314.619,102.455 314.936,101.906 315.331,101.456C315.726,101.007 316.183,100.659 316.701,100.414C317.218,100.168 317.764,100.046 318.336,100.046C318.908,100.046 319.406,100.148 319.828,100.352C320.251,100.557 320.68,100.836 321.116,101.191L321.034,99.494L321.034,95.671L322.731,95.671L322.731,110.226L321.341,110.226L321.198,109.061L321.136,109.061C320.741,109.442 320.288,109.773 319.777,110.052C319.266,110.331 318.718,110.471 318.132,110.471ZM318.499,109.061C318.963,109.061 319.399,108.948 319.808,108.723C320.217,108.499 320.625,108.154 321.034,107.691L321.034,102.499C320.612,102.117 320.206,101.848 319.818,101.691C319.43,101.535 319.031,101.456 318.622,101.456C318.227,101.456 317.856,101.548 317.508,101.732C317.161,101.916 316.857,102.175 316.598,102.509C316.339,102.843 316.135,103.242 315.985,103.705C315.835,104.168 315.76,104.686 315.76,105.258C315.76,106.458 315.999,107.391 316.476,108.059C316.953,108.727 317.627,109.061 318.499,109.061Z" style="fill:#132843;fill-rule:nonzero;"/>
    <path d="M329.477,110.471C328.223,110.471 327.225,110.021 326.482,109.122C325.739,108.223 325.368,106.942 325.368,105.279C325.368,104.475 325.487,103.749 325.726,103.102C325.964,102.455 326.281,101.906 326.676,101.456C327.071,101.007 327.528,100.659 328.046,100.414C328.564,100.168 329.109,100.046 329.681,100.046C330.254,100.046 330.751,100.148 331.173,100.352C331.596,100.557 332.025,100.836 332.461,101.191L332.38,99.494L332.38,95.671L334.076,95.671L334.076,110.226L332.686,110.226L332.543,109.061L332.482,109.061C332.087,109.442 331.633,109.773 331.122,110.052C330.611,110.331 330.063,110.471 329.477,110.471ZM329.845,109.061C330.308,109.061 330.744,108.948 331.153,108.723C331.562,108.499 331.971,108.154 332.38,107.691L332.38,102.499C331.957,102.117 331.552,101.848 331.163,101.691C330.775,101.535 330.376,101.456 329.967,101.456C329.572,101.456 329.201,101.548 328.853,101.732C328.506,101.916 328.203,102.175 327.944,102.509C327.685,102.843 327.48,103.242 327.33,103.705C327.18,104.168 327.106,104.686 327.106,105.258C327.106,106.458 327.344,107.391 327.821,108.059C328.298,108.727 328.973,109.061 329.845,109.061Z" style="fill:#132843;fill-rule:nonzero;"/>
    <path d="M341.456,110.471C340.788,110.471 340.164,110.352 339.585,110.113C339.006,109.875 338.502,109.534 338.073,109.091C337.643,108.648 337.306,108.107 337.061,107.466C336.815,106.826 336.693,106.097 336.693,105.279C336.693,104.461 336.819,103.729 337.071,103.081C337.323,102.434 337.657,101.886 338.073,101.436C338.488,100.986 338.962,100.642 339.493,100.404C340.025,100.165 340.577,100.046 341.149,100.046C341.776,100.046 342.338,100.155 342.836,100.373C343.333,100.591 343.749,100.904 344.083,101.313C344.416,101.722 344.672,102.213 344.849,102.785C345.026,103.357 345.115,103.998 345.115,104.707C345.115,104.884 345.111,105.057 345.105,105.228C345.098,105.398 345.081,105.545 345.054,105.667L338.349,105.667C338.417,106.73 338.747,107.572 339.34,108.192C339.933,108.812 340.706,109.122 341.66,109.122C342.137,109.122 342.577,109.05 342.979,108.907C343.381,108.764 343.766,108.577 344.134,108.345L344.726,109.449C344.29,109.722 343.807,109.96 343.275,110.165C342.744,110.369 342.137,110.471 341.456,110.471ZM338.328,104.461L343.643,104.461C343.643,103.453 343.428,102.686 342.999,102.162C342.57,101.637 341.967,101.375 341.19,101.375C340.836,101.375 340.498,101.443 340.178,101.579C339.858,101.715 339.568,101.916 339.309,102.182C339.05,102.448 338.836,102.771 338.665,103.153C338.495,103.535 338.383,103.971 338.328,104.461Z" style="fill:#132843;fill-rule:nonzero;"/>
    <path d="M350.961,110.471C349.707,110.471 348.709,110.021 347.967,109.122C347.224,108.223 346.852,106.942 346.852,105.279C346.852,104.475 346.972,103.749 347.21,103.102C347.449,102.455 347.765,101.906 348.161,101.456C348.556,101.007 349.012,100.659 349.53,100.414C350.048,100.168 350.593,100.046 351.166,100.046C351.738,100.046 352.235,100.148 352.658,100.352C353.08,100.557 353.51,100.836 353.946,101.191L353.864,99.494L353.864,95.671L355.561,95.671L355.561,110.226L354.171,110.226L354.028,109.061L353.966,109.061C353.571,109.442 353.118,109.773 352.607,110.052C352.096,110.331 351.547,110.471 350.961,110.471ZM351.329,109.061C351.793,109.061 352.229,108.948 352.637,108.723C353.046,108.499 353.455,108.154 353.864,107.691L353.864,102.499C353.442,102.117 353.036,101.848 352.648,101.691C352.259,101.535 351.861,101.456 351.452,101.456C351.057,101.456 350.685,101.548 350.338,101.732C349.99,101.916 349.687,102.175 349.428,102.509C349.169,102.843 348.965,103.242 348.815,103.705C348.665,104.168 348.59,104.686 348.59,105.258C348.59,106.458 348.828,107.391 349.305,108.059C349.782,108.727 350.457,109.061 351.329,109.061Z" style="fill:#132843;fill-rule:nonzero;"/>
    <path d="M367.029,110.471C366.361,110.471 365.737,110.352 365.158,110.113C364.579,109.875 364.075,109.534 363.645,109.091C363.216,108.648 362.879,108.107 362.634,107.466C362.388,106.826 362.266,106.097 362.266,105.279C362.266,104.461 362.392,103.729 362.644,103.081C362.896,102.434 363.23,101.886 363.645,101.436C364.061,100.986 364.535,100.642 365.066,100.404C365.598,100.165 366.15,100.046 366.722,100.046C367.349,100.046 367.911,100.155 368.408,100.373C368.906,100.591 369.322,100.904 369.655,101.313C369.989,101.722 370.245,102.213 370.422,102.785C370.599,103.357 370.688,103.998 370.688,104.707C370.688,104.884 370.684,105.057 370.677,105.228C370.671,105.398 370.654,105.545 370.626,105.667L363.921,105.667C363.99,106.73 364.32,107.572 364.913,108.192C365.506,108.812 366.279,109.122 367.233,109.122C367.71,109.122 368.15,109.05 368.552,108.907C368.954,108.764 369.339,108.577 369.707,108.345L370.299,109.449C369.863,109.722 369.379,109.96 368.848,110.165C368.316,110.369 367.71,110.471 367.029,110.471ZM363.901,104.461L369.216,104.461C369.216,103.453 369.001,102.686 368.572,102.162C368.143,101.637 367.54,101.375 366.763,101.375C366.409,101.375 366.071,101.443 365.751,101.579C365.431,101.715 365.141,101.916 364.882,102.182C364.623,102.448 364.409,102.771 364.238,103.153C364.068,103.535 363.956,103.971 363.901,104.461Z" style="fill:#132843;fill-rule:nonzero;"/>
    <path d="M373.141,110.226L373.141,100.291L374.531,100.291L374.674,101.722L374.735,101.722C375.212,101.245 375.713,100.846 376.238,100.526C376.762,100.206 377.372,100.046 378.067,100.046C379.117,100.046 379.883,100.373 380.367,101.027C380.851,101.681 381.093,102.649 381.093,103.93L381.093,110.226L379.416,110.226L379.416,104.155C379.416,103.214 379.267,102.536 378.967,102.121C378.667,101.705 378.19,101.497 377.536,101.497C377.018,101.497 376.561,101.627 376.166,101.886C375.771,102.144 375.321,102.526 374.817,103.03L374.817,110.226L373.141,110.226Z" style="fill:#132843;fill-rule:nonzero;"/>
    <path d="M386.469,110.226L382.892,100.291L384.629,100.291L386.51,105.933C386.66,106.424 386.813,106.914 386.97,107.405C387.126,107.895 387.28,108.379 387.43,108.856L387.511,108.856C387.661,108.379 387.811,107.895 387.961,107.405C388.111,106.914 388.261,106.424 388.411,105.933L390.292,100.291L391.947,100.291L388.431,110.226L386.469,110.226Z" style="fill:#132843;fill-rule:nonzero;"/>
    <path d="M393.869,110.226L393.869,100.291L395.545,100.291L395.545,110.226L393.869,110.226ZM394.727,98.247C394.4,98.247 394.124,98.145 393.9,97.94C393.675,97.736 393.562,97.477 393.562,97.163C393.562,96.836 393.675,96.574 393.9,96.376C394.124,96.179 394.4,96.08 394.727,96.08C395.054,96.08 395.33,96.179 395.555,96.376C395.78,96.574 395.893,96.836 395.893,97.163C395.893,97.477 395.78,97.736 395.555,97.94C395.33,98.145 395.054,98.247 394.727,98.247Z" style="fill:#132843;fill-rule:nonzero;"/>
    <path d="M398.898,110.226L398.898,100.291L400.288,100.291L400.431,102.09L400.492,102.09C400.833,101.463 401.245,100.966 401.729,100.598C402.213,100.23 402.741,100.046 403.313,100.046C403.708,100.046 404.063,100.114 404.376,100.25L404.049,101.722C403.885,101.668 403.736,101.627 403.599,101.599C403.463,101.572 403.293,101.558 403.088,101.558C402.666,101.558 402.226,101.729 401.77,102.07C401.313,102.41 400.915,103.003 400.574,103.848L400.574,110.226L398.898,110.226Z" style="fill:#132843;fill-rule:nonzero;"/>
    <path d="M409.65,110.471C409.037,110.471 408.454,110.355 407.902,110.124C407.35,109.892 406.863,109.555 406.441,109.112C406.018,108.669 405.681,108.124 405.429,107.476C405.177,106.829 405.051,106.097 405.051,105.279C405.051,104.448 405.177,103.708 405.429,103.061C405.681,102.414 406.018,101.865 406.441,101.415C406.863,100.966 407.35,100.625 407.902,100.393C408.454,100.162 409.037,100.046 409.65,100.046C410.263,100.046 410.846,100.162 411.398,100.393C411.95,100.625 412.437,100.966 412.859,101.415C413.282,101.865 413.619,102.414 413.871,103.061C414.123,103.708 414.249,104.448 414.249,105.279C414.249,106.097 414.123,106.829 413.871,107.476C413.619,108.124 413.282,108.669 412.859,109.112C412.437,109.555 411.95,109.892 411.398,110.124C410.846,110.355 410.263,110.471 409.65,110.471ZM409.65,109.081C410.073,109.081 410.461,108.989 410.815,108.805C411.17,108.621 411.473,108.362 411.725,108.028C411.977,107.694 412.171,107.296 412.307,106.833C412.444,106.369 412.512,105.851 412.512,105.279C412.512,104.707 412.444,104.185 412.307,103.715C412.171,103.245 411.977,102.84 411.725,102.499C411.473,102.158 411.17,101.896 410.815,101.712C410.461,101.528 410.073,101.436 409.65,101.436C409.228,101.436 408.839,101.528 408.485,101.712C408.131,101.896 407.827,102.158 407.575,102.499C407.323,102.84 407.129,103.245 406.993,103.715C406.856,104.185 406.788,104.707 406.788,105.279C406.788,105.851 406.856,106.369 406.993,106.833C407.129,107.296 407.323,107.694 407.575,108.028C407.827,108.362 408.131,108.621 408.485,108.805C408.839,108.989 409.228,109.081 409.65,109.081Z" style="fill:#132843;fill-rule:nonzero;"/>
    <path d="M416.866,110.226L416.866,100.291L418.256,100.291L418.399,101.722L418.461,101.722C418.937,101.245 419.438,100.846 419.963,100.526C420.488,100.206 421.098,100.046 421.793,100.046C422.842,100.046 423.608,100.373 424.092,101.027C424.576,101.681 424.818,102.649 424.818,103.93L424.818,110.226L423.142,110.226L423.142,104.155C423.142,103.214 422.992,102.536 422.692,102.121C422.392,101.705 421.915,101.497 421.261,101.497C420.743,101.497 420.287,101.627 419.891,101.886C419.496,102.144 419.047,102.526 418.542,103.03L418.542,110.226L416.866,110.226Z" style="fill:#132843;fill-rule:nonzero;"/>
    <path d="M428.048,110.226L428.048,100.291L429.438,100.291L429.581,101.722L429.642,101.722C430.078,101.245 430.552,100.846 431.063,100.526C431.574,100.206 432.129,100.046 432.729,100.046C433.492,100.046 434.088,100.213 434.518,100.547C434.947,100.881 435.264,101.347 435.468,101.947C435.986,101.375 436.507,100.915 437.032,100.567C437.557,100.22 438.126,100.046 438.739,100.046C439.761,100.046 440.521,100.373 441.018,101.027C441.516,101.681 441.764,102.649 441.764,103.93L441.764,110.226L440.088,110.226L440.088,104.155C440.088,103.214 439.938,102.536 439.638,102.121C439.339,101.705 438.875,101.497 438.248,101.497C437.499,101.497 436.667,102.008 435.754,103.03L435.754,110.226L434.078,110.226L434.078,104.155C434.078,103.214 433.928,102.536 433.628,102.121C433.329,101.705 432.858,101.497 432.218,101.497C431.468,101.497 430.637,102.008 429.724,103.03L429.724,110.226L428.048,110.226Z" style="fill:#132843;fill-rule:nonzero;"/>
    <path d="M449.021,110.471C448.353,110.471 447.73,110.352 447.151,110.113C446.572,109.875 446.067,109.534 445.638,109.091C445.209,108.648 444.871,108.107 444.626,107.466C444.381,106.826 444.258,106.097 444.258,105.279C444.258,104.461 444.384,103.729 444.636,103.081C444.889,102.434 445.222,101.886 445.638,101.436C446.054,100.986 446.527,100.642 447.059,100.404C447.59,100.165 448.142,100.046 448.715,100.046C449.341,100.046 449.904,100.155 450.401,100.373C450.898,100.591 451.314,100.904 451.648,101.313C451.982,101.722 452.237,102.213 452.415,102.785C452.592,103.357 452.68,103.998 452.68,104.707C452.68,104.884 452.677,105.057 452.67,105.228C452.663,105.398 452.646,105.545 452.619,105.667L445.914,105.667C445.982,106.73 446.313,107.572 446.905,108.192C447.498,108.812 448.272,109.122 449.226,109.122C449.703,109.122 450.142,109.05 450.544,108.907C450.946,108.764 451.331,108.577 451.699,108.345L452.292,109.449C451.856,109.722 451.372,109.96 450.841,110.165C450.309,110.369 449.703,110.471 449.021,110.471ZM445.894,104.461L451.208,104.461C451.208,103.453 450.994,102.686 450.565,102.162C450.135,101.637 449.532,101.375 448.755,101.375C448.401,101.375 448.064,101.443 447.744,101.579C447.423,101.715 447.134,101.916 446.875,102.182C446.616,102.448 446.401,102.771 446.231,103.153C446.061,103.535 445.948,103.971 445.894,104.461Z" style="fill:#132843;fill-rule:nonzero;"/>
    <path d="M455.133,110.226L455.133,100.291L456.523,100.291L456.666,101.722L456.728,101.722C457.205,101.245 457.706,100.846 458.23,100.526C458.755,100.206 459.365,100.046 460.06,100.046C461.109,100.046 461.876,100.373 462.36,101.027C462.843,101.681 463.085,102.649 463.085,103.93L463.085,110.226L461.409,110.226L461.409,104.155C461.409,103.214 461.259,102.536 460.959,102.121C460.659,101.705 460.183,101.497 459.528,101.497C459.01,101.497 458.554,101.627 458.159,101.886C457.764,102.144 457.314,102.526 456.81,103.03L456.81,110.226L455.133,110.226Z" style="fill:#132843;fill-rule:nonzero;"/>
    <path d="M469.443,110.471C468.911,110.471 468.465,110.389 468.104,110.226C467.743,110.062 467.45,109.837 467.225,109.551C467,109.265 466.84,108.918 466.744,108.509C466.649,108.1 466.601,107.65 466.601,107.16L466.601,101.661L465.129,101.661L465.129,100.393L466.683,100.291L466.887,97.511L468.298,97.511L468.298,100.291L470.976,100.291L470.976,101.661L468.298,101.661L468.298,107.18C468.298,107.793 468.41,108.267 468.635,108.601C468.86,108.935 469.259,109.102 469.831,109.102C470.008,109.102 470.199,109.074 470.403,109.02C470.608,108.965 470.792,108.904 470.955,108.836L471.282,110.103C471.01,110.199 470.714,110.284 470.393,110.359C470.073,110.434 469.756,110.471 469.443,110.471Z" style="fill:#132843;fill-rule:nonzero;"/>
    <path d="M475.616,110.471C474.908,110.471 474.233,110.342 473.592,110.083C472.952,109.824 472.393,109.497 471.916,109.102L472.754,107.977C473.19,108.332 473.637,108.618 474.093,108.836C474.55,109.054 475.078,109.163 475.677,109.163C476.332,109.163 476.822,109.013 477.149,108.713C477.476,108.413 477.64,108.045 477.64,107.609C477.64,107.35 477.572,107.126 477.435,106.935C477.299,106.744 477.125,106.577 476.914,106.434C476.703,106.291 476.461,106.165 476.189,106.056C475.916,105.947 475.643,105.838 475.371,105.729C475.017,105.606 474.662,105.466 474.308,105.31C473.954,105.153 473.637,104.962 473.357,104.737C473.078,104.512 472.85,104.25 472.673,103.95C472.495,103.65 472.407,103.289 472.407,102.867C472.407,102.472 472.485,102.1 472.642,101.753C472.799,101.405 473.023,101.105 473.316,100.853C473.609,100.601 473.967,100.404 474.39,100.26C474.812,100.117 475.289,100.046 475.821,100.046C476.447,100.046 477.023,100.155 477.548,100.373C478.073,100.591 478.526,100.857 478.907,101.17L478.11,102.233C477.769,101.974 477.415,101.763 477.047,101.599C476.679,101.436 476.277,101.354 475.841,101.354C475.214,101.354 474.754,101.497 474.461,101.783C474.168,102.07 474.022,102.403 474.022,102.785C474.022,103.017 474.083,103.218 474.206,103.388C474.328,103.558 474.492,103.708 474.696,103.838C474.901,103.967 475.136,104.083 475.402,104.185C475.667,104.287 475.943,104.393 476.229,104.502C476.584,104.638 476.941,104.782 477.303,104.931C477.664,105.081 477.987,105.269 478.274,105.494C478.56,105.718 478.795,105.994 478.979,106.321C479.163,106.649 479.255,107.044 479.255,107.507C479.255,107.916 479.176,108.298 479.02,108.652C478.863,109.006 478.631,109.32 478.325,109.592C478.018,109.865 477.637,110.079 477.18,110.236C476.723,110.393 476.202,110.471 475.616,110.471Z" style="fill:#132843;fill-rule:nonzero;"/>
    <path d="M482.464,110.471C482.124,110.471 481.834,110.352 481.595,110.113C481.357,109.875 481.238,109.572 481.238,109.204C481.238,108.809 481.357,108.492 481.595,108.253C481.834,108.015 482.124,107.895 482.464,107.895C482.791,107.895 483.074,108.015 483.313,108.253C483.551,108.492 483.67,108.809 483.67,109.204C483.67,109.572 483.551,109.875 483.313,110.113C483.074,110.352 482.791,110.471 482.464,110.471Z" style="fill:#132843;fill-rule:nonzero;"/>
</svg>
